HIERARCHY
ROOT Hips
{
	OFFSET -0.179506 -22.333345 2.821913
	CHANNELS 6 Xposition Yposition Zposition Zrotation Yrotation Xrotation 
	JOINT LeftUpLeg
	{
		OFFSET 6.951974 -9.140623 -0.681533
		CHANNELS 3 Zrotation Yrotation Xrotation
		JOINT LeftLeg
		{
			OFFSET 3.427654 -37.519855 -0.449580
			CHANNELS 3 Zrotation Yrotation Xrotation
			JOINT LeftFoot
			{
				OFFSET -1.359570 -39.796059 -4.369333
				CHANNELS 3 Zrotation Yrotation Xrotation
				JOINT LeftToe
				{
					OFFSET 2.635814 -5.579078 11.928840
					CHANNELS 3 Zrotation Yrotation Xrotation
					End Site
					{
						OFFSET 0.000000 0.000000 0.000000
					}
				}
			}
		}
	}
	JOINT RightUpLeg
	{
		OFFSET -6.767048 -9.052170 -0.431982
		CHANNELS 3 Zrotation Yrotation Xrotation
		JOINT RightLeg
		{
			OFFSET -3.829005 -38.256897 -0.885003
			CHANNELS 3 Zrotation Yrotation Xrotation
			JOINT RightFoot
			{
				OFFSET 1.577377 -39.841461 -4.231180
				CHANNELS 3 Zrotation Yrotation Xrotation
				JOINT RightToe
				{
					OFFSET -2.537174 -4.814398 12.334795
					CHANNELS 3 Zrotation Yrotation Xrotation
					End Site
					{
						OFFSET 0.000000 0.000000 0.000000
					}
				}
			}
		}
	}
	JOINT Spine
	{
		OFFSET -0.253288 10.896323 -2.669631
		CHANNELS 3 Zrotation Yrotation Xrotation
		JOINT Spine1
		{
			OFFSET 0.548704 13.518043 0.109247
			CHANNELS 3 Zrotation Yrotation Xrotation
			JOINT Spine2
			{
				OFFSET 0.145701 5.292222 2.542457
				CHANNELS 3 Zrotation Yrotation Xrotation
				JOINT Neck
				{
					OFFSET -0.277840 21.387037 -4.285703
					CHANNELS 3 Zrotation Yrotation Xrotation
					JOINT Head
					{
						OFFSET 0.515184 6.496960 5.134897
						CHANNELS 3 Zrotation Yrotation Xrotation
						End Site
						{
							OFFSET 0.000000 0.000000 0.000000
						}
					}
				}
				JOINT LeftShoulder
				{
					OFFSET 7.884473 12.174932 -3.408961
					CHANNELS 3 Zrotation Yrotation Xrotation
					JOINT LeftArm
					{
						OFFSET 9.097692 3.046888 -0.886815
						CHANNELS 3 Zrotation Yrotation Xrotation
						JOINT LeftForeArm
						{
							OFFSET 25.961220 -1.277207 -2.745643
							CHANNELS 3 Zrotation Yrotation Xrotation
							JOINT LeftHand
							{
								OFFSET 24.923361 0.898606 -0.117091
								CHANNELS 3 Zrotation Yrotation Xrotation
								End Site
								{
									OFFSET 0.000000 0.000000 0.000000
								}
							}
						}
					}
				}
				JOINT RightShoulder
				{
					OFFSET -8.175920 11.883285 -3.861528
					CHANNELS 3 Zrotation Yrotation Xrotation
					JOINT RightArm
					{
						OFFSET -9.601238 3.255117 -0.914307
						CHANNELS 3 Zrotation Yrotation Xrotation
						JOINT RightForeArm
						{
							OFFSET -25.374195 -1.332924 -2.140099
							CHANNELS 3 Zrotation Yrotation Xrotation
							JOINT RightHand
							{
								OFFSET -25.529810 0.777228 -0.555919
								CHANNELS 3 Zrotation Yrotation Xrotation
								End Site
								{
									OFFSET 0.000000 0.000000 0.000000
								}
							}
						}
					}
				}
			}
		}
	}
}
MOTION
Frames: 11
Frame Time: 0.033333
-0.179506 109.347794 2.821913 178.687896 0.631468 -177.423235 5.178961 1.241702 -9.461427 -3.917374 -12.688792 15.246367 -6.662178 10.963872 -8.327390 3.067954 1.287416 -0.586875 -4.623478 -3.195796 -13.584906 3.181299 5.249309 22.010523 9.393071 -9.709609 -7.717421 1.129052 -0.542706 1.137518 1.148014 1.059438 2.699871 -0.160603 -2.619508 -2.454583 3.778158 0.861626 -1.590306 -3.313850 -0.732358 -1.073531 3.960341 1.142555 -5.591840 1.912374 -2.869306 -11.242128 13.991825 -2.271540 -21.365130 46.081105 -39.224439 -58.959883 24.180790 -9.717514 -3.880970 -5.565316 2.405067 -10.733619 -10.802667 -1.197546 -21.796552 -56.600487 40.887825 -63.046089 -21.768278 10.579493 -5.014975 
-0.014738 109.009659 2.583863 178.791282 0.808188 -177.291249 5.543834 1.117802 -10.686692 -4.623828 -12.261207 17.779504 -6.586080 10.882976 -9.422238 3.274666 1.219648 -0.783170 -4.525398 -3.270191 -14.620874 3.425240 4.687873 23.977431 9.188856 -9.211176 -8.813954 1.251703 -0.560075 0.972798 1.111952 1.105442 3.315671 -0.344014 -2.578916 -2.596881 3.603052 0.893045 -1.295781 -3.196711 -0.597070 -1.537816 4.174095 1.528821 -5.706857 1.548249 -2.655213 -11.324352 12.651971 -2.419907 -21.231633 47.069866 -39.348400 -59.053432 25.023449 -9.391735 -3.917053 -5.610674 2.264554 -10.918106 -10.247782 -1.060638 -22.070830 -57.866170 41.093801 -63.548633 -22.207200 10.667918 -4.367033 
0.138095 108.251831 2.320192 178.967799 0.924584 -177.052585 6.057151 1.062085 -12.694080 -5.729317 -11.806495 21.664354 -6.185144 10.783103 -11.583306 3.687113 1.038899 -1.077079 -4.453601 -3.277669 -16.459338 3.888563 3.804419 27.378951 8.611348 -8.669178 -11.035576 1.454667 -0.489902 0.841500 1.072047 1.100470 4.200027 -0.495933 -2.467659 -2.830886 3.432423 0.953164 -1.046232 -3.153156 -0.491653 -2.009535 4.231872 1.783719 -5.914135 0.772761 -2.301998 -11.232163 10.553666 -2.621093 -20.777376 48.949961 -39.952433 -59.521668 25.832193 -8.918401 -4.376712 -5.311982 2.104999 -10.946382 -9.402106 -1.046258 -22.122234 -59.787243 41.749803 -64.308505 -22.860007 10.645721 -4.367266 
0.384987 107.210419 2.243792 179.090537 1.180137 -176.968369 6.662137 1.172942 -15.265959 -7.085828 -10.987983 26.696124 -5.669334 10.603341 -13.819515 4.172560 0.843119 -1.451319 -4.478648 -3.347883 -18.702615 4.534359 2.882171 31.630206 7.780436 -8.059698 -13.778022 1.722551 -0.438236 0.715546 1.061808 1.118493 5.432230 -0.612260 -2.329536 -3.076221 3.191084 1.015465 -0.826641 -2.921632 -0.271309 -2.786489 4.098537 2.173255 -6.374640 -0.287205 -1.842368 -11.077125 7.851671 -2.897930 -20.296533 51.739145 -40.681664 -60.515053 27.057232 -8.111681 -4.886206 -4.726666 1.887824 -10.939624 -8.269820 -0.950090 -22.182138 -62.392466 42.232830 -65.378201 -23.868937 10.660124 -4.064227 
0.589487 105.870651 2.435246 179.190605 1.253170 -176.931022 7.234174 1.223359 -17.928447 -8.295925 -10.111535 31.548878 -5.102151 10.481573 -16.424816 4.726233 0.578475 -1.852935 -4.509304 -3.434577 -21.024511 5.081922 2.011766 35.936525 6.518091 -7.535558 -17.153516 2.080760 -0.336666 0.564142 1.066472 1.138697 6.869151 -0.703542 -2.207895 -3.494991 2.873895 1.049272 -0.705666 -2.781332 -0.014624 -3.564339 3.923586 2.471049 -6.880413 -1.341196 -1.301389 -10.793572 5.021144 -3.097946 -19.859306 54.568788 -41.358719 -61.380862 27.935570 -7.119337 -5.687550 -4.118605 1.614968 -10.834142 -6.925079 -0.937468 -22.189783 -65.102301 42.443820 -66.241940 -24.719742 10.531554 -3.304100 
0.501825 104.227867 2.790035 179.359911 1.222606 -176.910403 7.830218 1.132706 -21.590812 -9.687242 -8.778169 37.922754 -4.499744 10.354798 -18.619644 5.321473 0.292826 -2.274325 -4.717521 -3.334617 -24.211107 5.767607 1.105972 41.665939 5.314410 -7.395778 -20.389588 2.368365 -0.212907 0.384448 1.114953 1.166561 8.470038 -0.651264 -2.145886 -3.848810 2.544260 1.068993 -0.600839 -2.565807 0.295644 -4.236160 3.740496 2.752626 -7.246978 -2.657141 -0.947401 -10.362250 1.995458 -3.371026 -19.327116 57.720243 -41.929209 -62.736813 28.734098 -5.781636 -6.336581 -3.230454 1.649045 -10.657949 -5.694969 -0.759344 -22.145057 -67.681859 42.445589 -67.289306 -25.291195 10.095787 -3.213744 
0.430495 102.301163 3.526372 179.466059 1.280071 -177.012024 8.522391 1.143759 -25.960369 -11.150647 -7.100556 45.277828 -4.003181 10.165013 -20.205719 6.031498 -0.024512 -2.693419 -5.007442 -3.264912 -27.984298 6.393777 0.082567 48.142419 4.251114 -7.304824 -23.467138 2.644568 -0.096997 0.332252 1.151382 1.281744 9.969637 -0.519690 -2.080973 -3.956688 2.178064 1.154956 -0.746774 -2.434113 0.542090 -4.605425 3.445191 2.780301 -7.613084 -3.880249 -0.691521 -9.880654 -0.833743 -3.755420 -18.786162 60.952546 -42.624638 -64.360113 29.260869 -4.639481 -6.824834 -2.304336 1.683154 -10.347653 -4.438321 -0.708305 -22.079968 -70.760730 42.039498 -68.851620 -25.779960 9.648176 -3.394981 
0.347535 100.129349 4.627642 179.435438 1.200867 -177.084221 9.111358 1.091562 -30.621823 -12.281896 -5.191218 52.679631 -3.255775 9.851734 -21.895527 6.693733 -0.306253 -3.053435 -5.443731 -3.083740 -32.154919 6.843496 -0.958014 54.780448 3.363499 -7.317737 -26.380361 2.836067 0.029841 0.342357 1.098523 1.371749 11.359368 -0.208564 -2.058688 -3.922059 1.805787 1.280396 -1.161241 -2.397558 0.728636 -4.890076 3.095497 2.887205 -7.976560 -5.187385 -0.620657 -9.363120 -3.569827 -3.792684 -18.147295 64.766485 -43.562950 -66.558303 29.689525 -3.557616 -7.280921 -1.216503 1.710360 -9.876936 -3.406403 -0.764228 -21.944618 -74.405520 41.719031 -71.052491 -25.624116 9.141672 -3.739375 
0.134543 97.831947 6.076789 179.467165 1.112782 -177.295868 9.705373 0.969162 -35.154544 -13.039453 -3.116841 59.764289 -2.386264 9.556302 -23.932784 7.348156 -0.535685 -3.380423 -5.898919 -2.811138 -36.412051 7.024279 -1.989537 61.249998 2.625567 -7.269112 -28.740052 3.086778 0.126891 0.341853 1.001940 1.430026 12.690349 0.193532 -2.044545 -3.905048 1.459796 1.370032 -1.568962 -2.294632 0.965454 -5.240190 2.724541 2.906754 -8.346254 -6.350804 -0.491170 -8.683041 -5.974397 -3.640261 -17.665168 68.048884 -44.623171 -68.637298 30.357120 -2.638803 -7.422939 -0.120125 1.789321 -9.260043 -2.203085 -0.622359 -21.884615 -77.953924 41.343473 -73.463256 -25.792686 8.672742 -4.082833 
-0.006386 95.499184 7.390733 179.426553 1.084747 -177.583719 10.413709 0.985653 -39.361239 -13.583065 -1.014106 66.326074 -1.691821 9.030458 -25.514728 7.841997 -0.721462 -3.639315 -6.546651 -2.796490 -40.477018 7.071257 -3.221236 67.482576 1.945042 -6.900029 -30.478059 3.389835 0.234997 0.372351 0.890949 1.428604 14.138670 0.622005 -2.052279 -3.785526 1.145488 1.431731 -2.095704 -2.388997 1.176148 -5.566261 2.373520 2.943710 -9.154859 -7.391380 -0.500540 -7.972353 -8.257465 -3.494993 -17.274273 71.122192 -45.495343 -70.607429 30.424412 -1.769477 -7.757389 0.964874 1.958377 -8.566211 -0.873219 -0.535481 -21.823780 -81.019828 41.121677 -75.555283 -25.212483 8.289642 -4.344558 
-0.397428 93.182732 8.439269 179.544121 1.128919 -177.798098 11.210043 1.115361 -43.376909 -13.947303 1.103578 72.516828 -1.065280 8.477684 -26.791232 8.212441 -0.920405 -3.793610 -7.320060 -2.833958 -44.484861 7.061491 -4.416138 73.550542 1.426443 -6.341442 -31.234134 3.748818 0.356556 0.413356 0.683045 1.496761 15.450062 1.256428 -1.979971 -3.399177 0.857018 1.539259 -2.775777 -2.503085 1.602799 -5.896510 1.973595 2.828703 -9.811169 -8.402814 -0.582992 -7.252709 -10.747565 -3.700752 -16.927117 74.496683 -46.241252 -72.877599 30.268455 -1.096133 -7.752806 2.048595 2.171775 -7.944411 1.008431 -0.243404 -21.591045 -84.447143 40.671051 -78.007939 -24.328199 7.635118 -5.219244 
